<?xml version="1.0" encoding="iso-8859-1"?>
<!-- Generator: Adobe Illustrator 19.0.0, SVG Export Plug-In . SVG Version: 6.00 Build 0)  -->
<svg version="1.1" id="Capa_1" xmlns="http://www.w3.org/2000/svg" xmlns:xlink="http://www.w3.org/1999/xlink" x="0px" y="0px"
	 viewBox="0 0 512 512" style="enable-background:new 0 0 512 512;" xml:space="preserve">
<path style="fill:#ED5565;" d="M396.664,79.52c24.128,24.128,24.128,63.355,0,87.498l-87.498,87.469l-21.859-21.861l-65.609-65.607
	c-24.157-24.143-24.157-63.37,0-87.498c24.128-24.128,63.341-24.128,87.469,0C333.294,55.392,372.534,55.392,396.664,79.52z"/>
<path style="fill:#DA4453;" d="M396.664,79.52c-16.168-16.166-39.115-21.483-59.76-15.986c10.167,2.707,19.778,8.024,27.74,15.986
	c24.128,24.128,24.128,63.355,0,87.498l-71.486,71.461l16.007,16.008l87.498-87.469C420.792,142.874,420.792,103.647,396.664,79.52z
	"/>
<path style="fill:#FFDECF;" d="M352.914,337.446l16.586-7.542c37.711-15.084,90.503-41.171,90.503-41.171
	c14.494-8.292,32.877-3.461,41.185,11.004c8.31,14.494,0,30.167-11.018,41.185c0,0-135.753,109.652-181.004,109.652
	s-181.005-30.167-181.005-30.167V284.653c75.419-12.521,101.226,7.542,211.172,42.688c6.039,2.563,10.105,6.187,12.668,10.576
	L352.914,337.446z"/>
<path style="fill:#FFCDBE;" d="M501.188,299.737c-3.034-5.289-7.424-9.25-12.461-11.8c-1.856,8.412-7.218,16.409-13.64,22.818
	c0,0-120.67,106.883-165.921,106.883c-36.059,0-144.503-16.35-181.005-24.128v26.897c0,0,135.755,30.167,181.005,30.167
	S490.17,340.922,490.17,340.922C501.188,329.904,509.498,314.231,501.188,299.737z"/>
<polygon style="fill:#E6E9ED;" points="128.161,420.407 128.161,435.048 97.994,435.048 97.994,269.57 128.161,269.57 
	128.161,284.653 "/>
<polygon style="fill:#656D78;" points="97.994,435.048 97.994,450.574 7.491,450.574 7.491,254.486 97.994,254.486 97.994,269.57 
	"/>
<path d="M507.656,295.983c-10.348-17.921-33.303-24.138-51.277-13.936c-3.268,1.61-45.001,22.121-79.376,36.586
	c-3.839,1.616-5.642,6.038-4.026,9.877c1.615,3.839,6.037,5.641,9.877,4.026c36.049-15.17,79.971-36.85,80.41-37.067
	c0.144-0.071,0.286-0.147,0.425-0.227c10.807-6.23,24.67-2.514,30.906,8.287c7.222,12.491-4.055,26.205-9.574,31.807
	c-37.444,30.203-141.056,107.659-175.883,107.659c-38.601,0-146.922-22.948-173.413-28.689V291.117
	c52.523-7.721,80.351,1.963,138.665,22.284c17.739,6.182,37.837,13.185,62.265,20.994c3.641,1.588,13.74,7.273,9.891,20.124
	c-2.34,7.814-9.887,15.284-20.935,13.206c-14.847-2.786-102.224-14.637-105.936-15.141c-4.129-0.557-7.927,2.333-8.486,6.461
	c-0.559,4.127,2.333,7.927,6.461,8.486c0.905,0.123,90.706,12.302,105.181,15.019c2.246,0.421,4.427,0.62,6.535,0.62
	c16.011,0,27.787-11.492,31.63-24.324c4.045-13.503-0.159-30.594-18.632-38.415c-0.026-0.011-0.052-0.024-0.08-0.035
	c-0.024-0.01-0.045-0.022-0.07-0.031c-0.101-0.042-0.204-0.073-0.306-0.11c-0.105-0.038-0.205-0.083-0.312-0.117
	c-24.4-7.794-44.503-14.8-62.24-20.981c-58.155-20.265-88.802-30.923-143.629-23.272v-6.306c0-4.165-3.377-7.542-7.542-7.542
	h-22.619v-7.538c0-1.981-0.804-3.931-2.212-5.329c-1.398-1.408-3.349-2.212-5.33-2.212H7.542c-1.981,0-3.922,0.805-5.329,2.212
	C0.805,250.569,0,252.519,0,254.5v165.848c0,4.153,3.389,7.542,7.542,7.542c4.163,0,7.542-3.389,7.542-7.542V262.042h75.397v180.952
	H75.405v-7.537c0-4.165-3.377-7.542-7.542-7.542s-7.542,3.377-7.542,7.542v7.537H8.156C3.691,442.642,0,446.151,0,450.515v0.02
	c0,1.991,0.805,3.931,2.212,5.329c1.398,1.408,3.349,2.212,5.329,2.212h60.302c0.007,0,0.013,0.001,0.02,0.001
	c0.006,0,0.013-0.001,0.02-0.001h30.139c1.981,0,3.932-0.805,5.33-2.212c1.408-1.398,2.212-3.338,2.212-5.329v-7.92h22.619
	c4.165,0,7.542-3.377,7.542-7.542v-5.329c31.555,6.818,134.251,28.334,173.413,28.334c20.611,0,57.158-18.363,111.729-56.137
	c39.355-27.242,73.612-54.854,73.952-55.13c0.209-0.168,0.409-0.348,0.598-0.538C511.802,329.868,516.376,311.067,507.656,295.983z
	 M105.564,427.532V277.121h15.078v143.13c0,0.007,0,0.013,0,0.02v7.261H105.564z"/>
<path d="M216.066,172.074c0.09,0.111,0.191,0.211,0.302,0.312l87.434,87.444c1.408,1.408,3.349,2.212,5.339,2.212
	c1.982,0,3.922-0.804,5.33-2.212l31.102-31.102c1.428-1.428,2.212-3.318,2.212-5.329c0-2.021-0.785-3.912-2.212-5.34
	c-1.428-1.418-3.318-2.202-5.329-2.202c-2.021,0-3.912,0.784-5.34,2.202l-25.763,25.773l-81.832-81.833
	c-0.101-0.101-0.191-0.201-0.282-0.292c-10.247-10.247-15.898-23.872-15.908-38.382c0.01-14.521,5.661-28.146,15.908-38.393
	c10.257-10.267,23.892-15.918,38.393-15.928c14.379,0.01,27.914,5.571,38.121,15.666c0.754,0.835,1.669,1.478,2.715,1.911
	c0.914,0.382,1.89,0.573,2.875,0.573c2.021,0,3.912-0.784,5.34-2.212c10.246-10.247,23.871-15.898,38.382-15.898
	c4.173,0,8.336,0.472,12.388,1.417c9.835,2.303,18.825,7.301,25.995,14.48c10.257,10.247,15.908,23.882,15.918,38.393
	c-0.01,14.511-5.661,28.146-15.918,38.393l-35.004,35.004c-1.417,1.417-2.202,3.318-2.202,5.329c0,2.021,0.785,3.912,2.202,5.329
	c1.428,1.428,3.319,2.212,5.34,2.212c2.011,0,3.901-0.784,5.329-2.212l35.003-35.003c6.617-6.607,11.746-14.329,15.245-22.947
	c3.379-8.326,5.089-17.105,5.089-26.105s-1.71-17.779-5.089-26.104c-3.499-8.618-8.628-16.34-15.254-22.957
	c-9.16-9.171-20.644-15.566-33.224-18.502c-5.168-1.197-10.488-1.81-15.817-1.81h-0.03c-7.824,0-15.526,1.307-22.896,3.881
	c-7.572,2.645-14.561,6.556-20.775,11.614c-6.225-5.078-13.214-8.99-20.785-11.644c-7.382-2.584-15.083-3.891-22.907-3.891h-0.071
	c-8.99,0-17.768,1.72-26.094,5.098c-8.608,3.499-16.331,8.628-22.937,15.254c-6.617,6.607-11.745,14.319-15.234,22.937
	c-3.379,8.326-5.088,17.115-5.078,26.115c-0.01,8.929,1.68,17.647,4.998,25.913C204.493,157.795,209.54,165.477,216.066,172.074z"/>
<g>
</g>
<g>
</g>
<g>
</g>
<g>
</g>
<g>
</g>
<g>
</g>
<g>
</g>
<g>
</g>
<g>
</g>
<g>
</g>
<g>
</g>
<g>
</g>
<g>
</g>
<g>
</g>
<g>
</g>
</svg>
